<?xml version="1.0" encoding="UTF-8" standalone="no" ?>
<!DOCTYPE svg PUBLIC "-//W3C//DTD SVG 1.1//EN" "http://www.w3.org/Graphics/SVG/1.1/DTD/svg11.dtd">
<svg xmlns="http://www.w3.org/2000/svg" xmlns:xlink="http://www.w3.org/1999/xlink" version="1.1" width="500" height="500" viewBox="0 0 500 500" xml:space="preserve">
<desc>Created with Fabric.js 3.6.3</desc>
<defs>
</defs>
<g transform="matrix(1 0 0 1 249.99999996870523 344.0594689271237)" style=""  ><path fill="#046380" opacity="1" d="M-125.39-4.79L-125.39-19.77Q-125.39-22.72-123.58-24.27Q-121.77-25.81-119.21-25.81L-119.21-25.81Q-116.78-25.81-114.97-24.27Q-113.17-22.72-113.17-19.77L-113.17-19.77L-113.17 14.53Q-113.17 16.04-113.69 17.22Q-114.22 18.41-115.04 19.23Q-115.86 20.05-116.95 20.47Q-118.03 20.90-119.21 20.90L-119.21 20.90Q-120.79 20.90-122.30 20.11Q-123.81 19.32-124.93 17.62L-124.93 17.62L-136.89-0.19L-136.89 14.86Q-136.89 17.81-138.69 19.36Q-140.50 20.90-143.06 20.90L-143.06 20.90Q-145.49 20.90-147.27 19.36Q-149.04 17.81-149.04 14.86L-149.04 14.86L-149.04-19.50Q-149.04-20.95-148.55-22.13Q-148.05-23.31-147.20-24.14Q-146.35-24.96-145.30-25.38Q-144.24-25.81-143.06-25.81L-143.06-25.81Q-141.42-25.81-139.91-25.06Q-138.40-24.30-137.28-22.59L-137.28-22.59L-125.39-4.79Z"/><path fill="#046380" opacity="1" d="M-79.86 20.64L-101.54 20.64Q-107.85 20.64-107.85 14.20L-107.85 14.20L-107.85-19.18Q-107.85-25.61-101.54-25.61L-101.54-25.61L-79.86-25.61Q-76.84-25.61-75.16-23.71Q-73.49-21.80-73.49-19.18L-73.49-19.18Q-73.49-16.55-75.16-14.64Q-76.84-12.74-79.86-12.74L-79.86-12.74L-95.17-12.74L-95.17-8.33L-82.42-8.33Q-79.66-8.33-78.12-6.59Q-76.57-4.85-76.57-2.49L-76.57-2.49Q-76.57-0.12-78.12 1.62Q-79.66 3.36-82.42 3.36L-82.42 3.36L-95.17 3.36L-95.17 7.83L-79.86 7.83Q-76.84 7.83-75.16 9.70Q-73.49 11.57-73.49 14.20L-73.49 14.20Q-73.49 16.83-75.16 18.73Q-76.84 20.64-79.86 20.64L-79.86 20.64Z"/><path fill="#046380" opacity="1" d="M-55.62-19.50L-55.62 14.53Q-55.62 17.68-57.52 19.29Q-59.43 20.90-61.99 20.90L-61.99 20.90Q-64.62 20.90-66.49 19.29Q-68.36 17.68-68.36 14.53L-68.36 14.53L-68.36-19.50Q-68.36-22.53-66.49-24.17Q-64.62-25.81-61.99-25.81L-61.99-25.81Q-59.43-25.81-57.52-24.17Q-55.62-22.53-55.62-19.50L-55.62-19.50Z"/><path fill="#046380" opacity="1" d="M-50.29 14.20L-50.29-19.18Q-50.29-20.42-49.70-21.61Q-49.11-22.79-48.16-23.68Q-47.21-24.56-46.02-25.09Q-44.84-25.61-43.66-25.61L-43.66-25.61L-37.48-25.61Q-31.50-25.61-27.00-23.58Q-22.50-21.54-19.51-18.26Q-16.52-14.97-15.01-10.73Q-13.50-6.50-13.50-2.16L-13.50-2.16Q-13.50 2.18-14.95 6.25Q-16.39 10.32-19.28 13.54Q-22.17 16.76-26.44 18.70Q-30.71 20.64-36.43 20.64L-36.43 20.64L-43.66 20.64Q-46.68 20.64-48.49 18.93Q-50.29 17.22-50.29 14.20L-50.29 14.20ZM-37.55 7.83L-36.36 7.83Q-33.87 7.83-31.93 6.91Q-29.99 5.99-28.71 4.51Q-27.43 3.03-26.77 1.09Q-26.12-0.84-26.12-2.82L-26.12-2.82Q-26.12-4.66-26.74-6.40Q-27.36-8.14-28.61-9.52Q-29.86-10.90-31.83-11.75Q-33.80-12.61-36.43-12.61L-36.43-12.61L-37.55-12.61L-37.55 7.83Z"/><path fill="#046380" opacity="1" d="M24.21 5.92L24.21 5.92Q24.21 20.64 9.82 20.64L9.82 20.64L-2.86 20.64Q-4.43 20.64-5.62 20.08Q-6.80 19.52-7.59 18.64Q-8.38 17.75-8.77 16.60Q-9.17 15.45-9.17 14.20L-9.17 14.20Q-9.17 13.02-8.77 11.87Q-8.38 10.72-7.56 9.83Q-6.73 8.94-5.52 8.39Q-4.30 7.83-2.73 7.83L-2.73 7.83L10.54 7.83Q11.86 7.83 12.48 7.07Q13.11 6.32 13.11 5.46L13.11 5.46Q13.11 4.54 12.48 3.75Q11.86 2.97 10.54 2.97L10.54 2.97L3.97 2.97Q-2.79 2.97-6.21-0.35Q-9.63-3.67-9.63-10.77L-9.63-10.77Q-9.63-25.61 4.89-25.61L4.89-25.61L15.14-25.61Q16.79-25.61 18.03-25.06Q19.28-24.50 20.14-23.61Q20.99-22.72 21.42-21.57Q21.85-20.42 21.85-19.24L21.85-19.24Q21.85-18.06 21.42-16.88Q20.99-15.69 20.14-14.77Q19.28-13.85 18.00-13.30Q16.72-12.74 15.08-12.74L15.08-12.74L4.04-12.74Q2.73-12.74 2.14-11.98Q1.54-11.23 1.54-10.31L1.54-10.31Q1.54-9.45 2.14-8.70Q2.73-7.94 4.04-7.94L4.04-7.94L10.61-7.94Q17.51-7.94 20.86-4.59Q24.21-1.24 24.21 5.92Z"/><path fill="#046380" opacity="1" d="M28.15-2.49L28.15-2.49Q28.15-7.41 29.99-11.69Q31.83-15.96 35.05-19.18Q38.27-22.39 42.54-24.23Q46.81-26.07 51.74-26.07L51.74-26.07Q56.67-26.07 60.97-24.23Q65.27-22.39 68.46-19.18Q71.65-15.96 73.52-11.69Q75.39-7.41 75.39-2.49L75.39-2.49Q75.39 2.44 73.52 6.71Q71.65 10.98 68.46 14.20Q65.27 17.42 60.97 19.26Q56.67 21.10 51.74 21.10L51.74 21.10Q46.81 21.10 42.54 19.26Q38.27 17.42 35.05 14.20Q31.83 10.98 29.99 6.71Q28.15 2.44 28.15-2.49ZM41.10-2.29L41.10-2.29Q41.10-0.06 41.95 1.88Q42.80 3.82 44.25 5.27Q45.69 6.71 47.63 7.53Q49.57 8.35 51.80 8.35L51.80 8.35Q54.04 8.35 55.98 7.53Q57.91 6.71 59.39 5.27Q60.87 3.82 61.73 1.88Q62.58-0.06 62.58-2.29L62.58-2.29Q62.58-4.52 61.73-6.50Q60.87-8.47 59.39-9.91Q57.91-11.36 55.98-12.21Q54.04-13.07 51.80-13.07L51.80-13.07Q49.57-13.07 47.63-12.21Q45.69-11.36 44.25-9.91Q42.80-8.47 41.95-6.50Q41.10-4.52 41.10-2.29Z"/><path fill="#046380" opacity="1" d="M92.54 3.95L92.54 14.20Q92.54 17.35 90.63 18.96Q88.73 20.57 86.17 20.57L86.17 20.57Q83.60 20.57 81.73 18.96Q79.86 17.35 79.86 14.20L79.86 14.20L79.86-19.18Q79.86-25.61 86.17-25.61L86.17-25.61L107.85-25.61Q110.87-25.61 112.54-23.71Q114.22-21.80 114.22-19.18L114.22-19.18Q114.22-16.55 112.54-14.64Q110.87-12.74 107.85-12.74L107.85-12.74L92.54-12.74L92.54-8.27L105.02-8.27Q107.98-8.27 109.55-6.46Q111.13-4.66 111.13-2.16L111.13-2.16Q111.13 0.34 109.55 2.14Q107.98 3.95 105.02 3.95L105.02 3.95L92.54 3.95Z"/><path fill="#046380" opacity="1" d="M139.65-12.74L139.65 14.53Q139.65 17.68 137.74 19.29Q135.83 20.90 133.21 20.90L133.21 20.90Q130.64 20.90 128.77 19.29Q126.90 17.68 126.90 14.53L126.90 14.53L126.90-12.74L122.43-12.74Q119.41-12.74 117.73-14.64Q116.06-16.55 116.06-19.18L116.06-19.18Q116.06-21.80 117.73-23.71Q119.41-25.61 122.43-25.61L122.43-25.61L143.98-25.61Q147.00-25.61 148.71-23.71Q150.42-21.80 150.42-19.18L150.42-19.18Q150.42-16.55 148.71-14.64Q147.00-12.74 143.98-12.74L143.98-12.74L139.65-12.74Z"/></g><g transform="matrix(0.3286962619837072 -1.0217611360053678 1.0217611360053684 0.32869626198370755 250.5 217.99710568480066)"  >
<g style=""   >
		<g transform="matrix(1.1204384654154556 0 0 1.1204384654154556 -10.091012139927798 11.67006888483489)"  >
<circle style="stroke: none; stroke-width: 0; stroke-dasharray: none; stroke-linecap: butt; stroke-dashoffset: 0; stroke-linejoin: miter; stroke-miterlimit: 4; fill: rgb(0,76,242); fill-rule: evenodd; opacity: 0.8;"  cx="0" cy="0" r="47.0059" />
</g>
		<g transform="matrix(0.7023644111559573 0 0 0.7023644111559573 20.99094185883972 -10.340111964735698)"  >
<circle style="stroke: none; stroke-width: 0; stroke-dasharray: none; stroke-linecap: butt; stroke-dashoffset: 0; stroke-linejoin: miter; stroke-miterlimit: 4; fill: rgb(251,165,54); fill-rule: evenodd; opacity: 0.8;"  cx="0" cy="0" r="47.0059" />
</g>
		<g transform="matrix(0.1640206609377625 0 0 0.1640206609377625 0.9140782848575064 -56.627348560332905)"  >
<circle style="stroke: none; stroke-width: 0; stroke-dasharray: none; stroke-linecap: butt; stroke-dashoffset: 0; stroke-linejoin: miter; stroke-miterlimit: 4; fill: rgb(255,83,98); fill-rule: evenodd; opacity: 0.7;"  cx="0" cy="0" r="47.0059" />
</g>
		<g transform="matrix(0.8863169950301366 0 0 0.8863169950301366 -25.328172179880866 -1.6932552024043588)"  >
<circle style="stroke: none; stroke-width: 0; stroke-dasharray: none; stroke-linecap: butt; stroke-dashoffset: 0; stroke-linejoin: miter; stroke-miterlimit: 4; fill: rgb(99,25,195); fill-rule: evenodd; opacity: 0.8;"  cx="0" cy="0" r="47.0059" />
</g>
		<g transform="matrix(0.6470430043256643 0 0 0.6470430043256643 13.674042016607682 31.322016071951435)"  >
<circle style="stroke: none; stroke-width: 0; stroke-dasharray: none; stroke-linecap: butt; stroke-dashoffset: 0; stroke-linejoin: miter; stroke-miterlimit: 4; fill: rgb(255,83,98); fill-rule: evenodd; opacity: 0.8;"  cx="0" cy="0" r="47.0059" />
</g>
		<g transform="matrix(0.07846229053274655 0 0 -0.07846229053274655 -76.90763257612397 11.670068884834874)"  >
<circle style="stroke: none; stroke-width: 0; stroke-dasharray: none; stroke-linecap: butt; stroke-dashoffset: 0; stroke-linejoin: miter; stroke-miterlimit: 4; fill: rgb(99,25,195); fill-rule: evenodd; opacity: 0.7;"  cx="0" cy="0" r="47.0059" />
</g>
		<g transform="matrix(0.08973911094761094 0 0 0.08973911094761093 55.15345252129921 21.98044018813328)"  >
<circle style="stroke: none; stroke-width: 0; stroke-dasharray: none; stroke-linecap: butt; stroke-dashoffset: 0; stroke-linejoin: miter; stroke-miterlimit: 4; fill: rgb(255,83,98); fill-rule: evenodd; opacity: 0.7;"  cx="0" cy="0" r="47.0059" />
</g>
		<g transform="matrix(0.19007688396989056 0 0 0.19007688396989056 71.66108815847704 6.423524467187805)"  >
<circle style="stroke: none; stroke-width: 0; stroke-dasharray: none; stroke-linecap: butt; stroke-dashoffset: 0; stroke-linejoin: miter; stroke-miterlimit: 4; fill: rgb(0,76,242); fill-rule: evenodd; opacity: 0.7;"  cx="0" cy="0" r="47.0059" />
</g>
		<g transform="matrix(0.09873329263926167 0 0 0.09873329263926167 -61.34997199317024 55.69043058397597)"  >
<circle style="stroke: none; stroke-width: 0; stroke-dasharray: none; stroke-linecap: butt; stroke-dashoffset: 0; stroke-linejoin: miter; stroke-miterlimit: 4; fill: rgb(251,165,54); fill-rule: evenodd; opacity: 0.7;"  cx="0" cy="0" r="47.0059" />
</g>
</g>
</g>
<g transform="matrix(1.1115625910789924 0 0 1.1115625910789924 253.26568690146323 230.2754227556773)"  >
<circle style="stroke: none; stroke-width: 0; stroke-dasharray: none; stroke-linecap: butt; stroke-dashoffset: 0; stroke-linejoin: miter; stroke-miterlimit: 4; fill: rgb(255,255,255); fill-rule: evenodd; opacity: 0.5;"  cx="0" cy="0" r="47.0059" />
</g>
<g transform="matrix(1.0208146870613428 0 0 1.0208146870613428 249.5 230.5097358542141)"  >
<circle style="stroke: none; stroke-width: 0; stroke-dasharray: none; stroke-linecap: butt; stroke-dashoffset: 0; stroke-linejoin: miter; stroke-miterlimit: 4; fill: rgb(4,99,128); fill-rule: evenodd; opacity: 1;"  cx="0" cy="0" r="47.0059" />
</g>
<g transform="matrix(1.0208146870613428 0 0 1.0208146870613428 249 225.50973585421414)"  >
<circle style="stroke: none; stroke-width: 0; stroke-dasharray: none; stroke-linecap: butt; stroke-dashoffset: 0; stroke-linejoin: miter; stroke-miterlimit: 4; fill: rgb(4,99,128); fill-rule: evenodd; opacity: 0.2;"  cx="0" cy="0" r="47.0059" />
</g>
<g transform="matrix(1.1774289189707399 0 0 1.1774289189707399 250.49999999999994 228.5097358542141)"  >
<path style="stroke: none; stroke-width: 0; stroke-dasharray: none; stroke-linecap: butt; stroke-dashoffset: 0; stroke-linejoin: miter; stroke-miterlimit: 4; fill: rgb(255,255,255); fill-rule: nonzero; opacity: 0.19;"  transform=" translate(-50.000000050000004, -1002.3621800000001)" d="m 50 957.36216 c -24.81727 0 -44.9999999 20.18283 -44.9999999 45.00004 c 0 24.8171 20.1827299 45 44.9999999 45 c 24.81727 0 45 -20.1829 45 -45 c 0 -24.81721 -20.18273 -45.00004 -45 -45.00004 z m 0 6 c 21.57461 0 39 17.42549 39 39.00004 c 0 21.5745 -17.42539 39 -39 39 c -21.57461 0 -39 -17.4255 -39 -39 c 0 -21.57455 17.42539 -39.00004 39 -39.00004 z" stroke-linecap="round" />
</g>
<g transform="matrix(1.1114830978664187 0 0 1.1114830978664187 250.5 230.50973585421414)"  >
<path style="stroke: none; stroke-width: 0; stroke-dasharray: none; stroke-linecap: butt; stroke-dashoffset: 0; stroke-linejoin: miter; stroke-miterlimit: 4; fill: rgb(255,255,255); fill-rule: nonzero; opacity: 1;"  transform=" translate(-25.251653926516905, -34.913000000000004)" d="M 47.802 41.557 c -0.849 -1.603 -1.454 -2.27 -2.332 -3.156 c -1.718 -1.728 -3.045 -3.366 -3.865 -3.793 c -0.814 -0.422 -1.301 -0.383 -1.301 -0.383 s -0.364 -0.232 -0.313 -0.678 c 0.064 -0.554 0.936 -1.114 0.936 -1.114 s -0.177 -1.032 -0.068 -1.689 c 0.109 -0.656 0.806 -2.983 0.391 -5.032 c -0.374 -1.842 -1.311 -2.267 -1.811 -2.926 c -0.296 -0.388 -0.797 -1.3 -1.457 -1.771 c -2.866 -2.051 -5.581 -1.147 -6.366 -0.86 c -1.392 0.509 -3.562 0.938 -4.083 1.919 c -0.362 0.681 0.361 1.159 0.361 1.159 s -0.955 2.828 -0.988 3.15 c -0.054 0.518 0.403 0.714 0.459 1.046 c 0.115 0.695 -0.972 2.003 -1.537 2.862 c -0.216 0.327 -0.236 0.496 -0.194 0.692 c 0.124 0.569 1.234 0.28 1.421 0.739 c 0.093 0.231 -0.257 0.762 -0.18 0.98 c 0.076 0.22 0.563 0.331 0.563 0.331 s -0.386 0.322 -0.307 0.606 c 0.081 0.287 0.684 0.383 0.724 0.791 c 0.038 0.409 -0.796 1.411 0.177 1.983 c 1.1 0.646 2.845 -0.283 3.32 -0.135 c 0.699 0.217 0.332 0.999 0.466 1.429 c 0.144 0.454 0.663 1.222 0.663 1.222 s -1.504 3.376 -1.914 5.078 c -0.274 1.146 -0.452 2.64 -0.585 3.233 c -0.076 0.35 -0.341 1.283 -0.562 2.045 h -3.765 c -0.486 -0.389 -1.055 -0.79 -1.574 -1.02 c -1.001 -0.441 -2.514 -0.194 -2.514 -0.194 s -0.877 -1.028 -2.409 -1.01 c -2.133 0.024 -3.973 1.274 -5.066 2.224 H 2.756 c -0.016 0 -0.031 0.002 -0.046 0.002 c -0.004 0 -0.602 0.03 -1.109 -0.415 c -0.541 -0.475 -0.355 -1.112 -0.343 -1.402 c 1.537 -5.246 5.086 -13.567 5.52 -14.395 c 0.164 -0.278 0.534 -0.536 0.863 -0.658 c 1.698 8.412 3.463 11.235 3.463 11.235 l 1.391 -0.289 L 7.536 19.425 l -1.391 0.289 c 0 0 -0.245 3.521 1.263 11.449 c -0.599 0.247 -1.041 0.627 -1.412 1.044 c -0.433 0.484 -3.893 8.428 -5.821 15.015 c -0.01 0.036 -0.018 0.074 -0.021 0.11 c -0.01 0.135 -0.269 1.246 0.488 2.173 c 0.623 0.76 1.642 0.896 2.014 0.896 c 0.052 0 0.092 -0.002 0.117 -0.003 h 27.438 v -0.002 H 50.4 C 49.878 47.498 49.138 44.074 47.802 41.557 z" stroke-linecap="round" />
</g>
</svg>